<svg id="Layer_1" height="512" viewBox="0 0 512 512" width="512" xmlns="http://www.w3.org/2000/svg" data-name="Layer 1"><path d="m256 0c141.381 0 256 114.614 256 256s-114.619 256-256 256-256-114.611-256-256 114.62-256 256-256zm140.311 327.376-47.311-27.314a19.34 19.34 0 0 0 -26.361 7.061l-1.863 3.231a31.96 31.96 0 0 1 -46.856 9.585 411.029 411.029 0 0 1 -43.764-38.1 410.638 410.638 0 0 1 -38.1-43.767 31.954 31.954 0 0 1 9.576-46.848l3.228-1.866a19.35 19.35 0 0 0 7.069-26.366l-27.316-47.309a19.176 19.176 0 0 0 -23.784-8.307l-.59.23c-9.115 3.554-35.142 13.141-41.808 19.808a37.985 37.985 0 0 0 -3.042 3.434c-16.343 20.879-8.146 54.814.484 77.078 15.887 40.993 46.012 80.424 76.891 111.3s70.308 61.01 111.3 76.894c14.21 5.506 30.213 9.867 45.553 9.867 12.844 0 25.654-3.12 34.966-12.429 6.574-6.572 16.26-32.823 19.815-41.845l.229-.584a19.136 19.136 0 0 0 -8.319-23.755zm-144.06-197.857a10 10 0 0 0 10 10 110.228 110.228 0 0 1 110.216 110.216 10 10 0 1 0 20 0 130.222 130.222 0 0 0 -130.217-130.215 10 10 0 0 0 -10 10zm0 55.826a10 10 0 0 0 10 10 54.451 54.451 0 0 1 54.388 54.39 10 10 0 1 0 20 0 74.473 74.473 0 0 0 -74.387-74.389 10 10 0 0 0 -10.001 9.999z" fill-rule="evenodd"/></svg>