<?xml version="1.0" encoding="UTF-8" standalone="no"?>
<!-- Created with Inkscape (http://www.inkscape.org/) -->

<svg
   width="210mm"
   height="297mm"
   viewBox="0 0 210 297"
   version="1.1"
   id="svg1"
   xml:space="preserve"
   inkscape:version="1.4.2 (f4327f4, 2025-05-13)"
   sodipodi:docname="instagramWithText.svg"
   xmlns:inkscape="http://www.inkscape.org/namespaces/inkscape"
   xmlns:sodipodi="http://sodipodi.sourceforge.net/DTD/sodipodi-0.dtd"
   xmlns="http://www.w3.org/2000/svg"
   xmlns:svg="http://www.w3.org/2000/svg"><sodipodi:namedview
     id="namedview1"
     pagecolor="#505050"
     bordercolor="#eeeeee"
     borderopacity="1"
     inkscape:showpageshadow="0"
     inkscape:pageopacity="0"
     inkscape:pagecheckerboard="0"
     inkscape:deskcolor="#505050"
     inkscape:document-units="mm"
     inkscape:zoom="0.74208053"
     inkscape:cx="396.18342"
     inkscape:cy="776.86987"
     inkscape:window-width="1920"
     inkscape:window-height="1051"
     inkscape:window-x="-9"
     inkscape:window-y="-9"
     inkscape:window-maximized="1"
     inkscape:current-layer="layer1" /><defs
     id="defs1" /><g
     inkscape:label="Layer 1"
     inkscape:groupmode="layer"
     id="layer1"><g
       style="fill:#000000"
       id="g5"
       transform="matrix(8.8194444,0,0,8.8194444,-1.0583328,42.597917)"><path
         d="M 12,9.52 A 2.48,2.48 0 1 0 14.48,12 2.48,2.48 0 0 0 12,9.52 Z M 21.93,7.07 A 6.53,6.53 0 0 0 21.51,4.81 4,4 0 0 0 19.19,2.49 6.53,6.53 0 0 0 16.93,2.07 C 15.64,2 15.26,2 12,2 8.74,2 8.36,2 7.07,2.07 A 6.53,6.53 0 0 0 4.81,2.49 4,4 0 0 0 2.49,4.81 6.53,6.53 0 0 0 2.07,7.07 C 2,8.36 2,8.74 2,12 c 0,3.26 0,3.64 0.07,4.93 a 6.86,6.86 0 0 0 0.42,2.27 3.94,3.94 0 0 0 0.91,1.4 3.89,3.89 0 0 0 1.41,0.91 6.53,6.53 0 0 0 2.26,0.42 C 8.36,22 8.74,22 12,22 c 3.26,0 3.64,0 4.93,-0.07 a 6.53,6.53 0 0 0 2.26,-0.42 3.89,3.89 0 0 0 1.41,-0.91 3.94,3.94 0 0 0 0.91,-1.4 6.6,6.6 0 0 0 0.42,-2.27 C 22,15.64 22,15.26 22,12 22,8.74 22,8.36 21.93,7.07 Z m -2.54,8 A 5.73,5.73 0 0 1 19,16.87 3.86,3.86 0 0 1 16.87,19 5.73,5.73 0 0 1 15.06,19.35 c -0.79,0 -1,0 -3.06,0 -2.06,0 -2.27,0 -3.06,0 A 5.73,5.73 0 0 1 7.13,19 3.51,3.51 0 0 1 5.82,18.14 3.51,3.51 0 0 1 5,16.87 5.49,5.49 0 0 1 4.66,15.06 c 0,-0.79 0,-1 0,-3.06 0,-2.06 0,-2.27 0,-3.06 A 5.49,5.49 0 0 1 5,7.13 3.51,3.51 0 0 1 5.86,5.82 3.59,3.59 0 0 1 7.13,5 5.73,5.73 0 0 1 8.94,4.65 v 0 c 0.79,0 1,0 3.06,0 2.06,0 2.27,0 3.06,0 A 5.73,5.73 0 0 1 16.87,5 3.51,3.51 0 0 1 18.18,5.86 3.51,3.51 0 0 1 19,7.13 5.73,5.73 0 0 1 19.35,8.94 c 0,0.79 0,1 0,3.06 0,2.06 0.07,2.27 0.04,3.06 z M 17.79,7.63 A 2.38,2.38 0 0 0 16.38,6.22 4,4 0 0 0 15,6 C 14.22,6 14,6 12,6 10,6 9.78,6 9,6 A 4,4 0 0 0 7.62,6.26 2.38,2.38 0 0 0 6.21,7.62 4.27,4.27 0 0 0 6,9 c 0,0.78 0,1 0,3 0,2 0,2.22 0,3 a 4.27,4.27 0 0 0 0.26,1.38 2.38,2.38 0 0 0 1.41,1.41 4.27,4.27 0 0 0 1.33,0.26 v 0 c 0.78,0 1,0 3,0 2,0 2.22,0 3,0 a 4,4 0 0 0 1.38,-0.26 2.38,2.38 0 0 0 1.41,-1.41 4,4 0 0 0 0.26,-1.38 c 0,-0.78 0,-1 0,-3 0,-2 0,-2.22 0,-3 A 3.78,3.78 0 0 0 17.79,7.62 Z M 12,15.82 A 3.81,3.81 0 0 1 8.19,12 v 0 A 3.82,3.82 0 1 1 12,15.82 Z m 4,-6.89 a 0.9,0.9 0 0 1 0,-1.79 v 0 a 0.9,0.9 0 0 1 0,1.79 z"
         id="path1" /></g><path
       class="st0"
       d="m 41.411125,241.29726 c -2.812786,1.23348 -5.916939,4.7341 -6.891892,9.11581 -1.2439,5.55641 3.922216,7.90587 4.33685,7.13053 0.493075,-0.90453 -0.930124,-1.20996 -1.22149,-4.09974 -0.369799,-3.71213 1.288728,-7.87061 3.361897,-9.69144 0.381023,-0.34055 0.369799,0.1292 0.369799,1.01025 0,1.56238 -0.07845,15.57677 -0.07845,18.5018 0,3.95881 -0.156881,5.20402 -0.437045,6.44918 -0.280175,1.25698 -0.739617,2.10278 -0.392203,2.41996 0.381022,0.36407 2.039552,-0.50513 2.992086,-1.90307 1.143045,-1.67982 1.546474,-3.6886 1.613711,-5.87359 0.08966,-2.63134 0.07844,-6.81335 0.08966,-9.198 0,-2.185 0.03346,-8.58722 -0.03346,-12.44027 -0.02245,-0.95151 -2.521413,-1.93827 -3.709282,-1.42142 z m 100.083705,18.52529 c -0.0897,2.05575 -0.52671,3.66512 -1.06462,4.8046 -1.04218,2.19672 -3.21619,2.87807 -4.13512,-0.28193 -0.50427,-1.71508 -0.52668,-4.59314 -0.16815,-7.00132 0.36976,-2.4434 1.38962,-4.29945 3.09294,-4.12328 1.68097,0.16428 2.4542,2.41996 2.27491,6.60193 z m -28.20635,12.76916 c -0.0212,3.41844 -0.5379,6.41398 -1.63611,7.28326 -1.55768,1.23344 -3.66448,0.30547 -3.22742,-2.18495 0.38119,-2.20848 2.20764,-4.46394 4.86353,-7.2128 0,0 0.0127,0.6226 0,2.11449 z m -0.42583,-12.78089 c -0.0897,1.87954 -0.56031,3.75906 -1.06458,4.81633 -1.04218,2.19672 -3.22742,2.87807 -4.13513,-0.28193 -0.61638,-2.16146 -0.47068,-4.95729 -0.16815,-6.71939 0.39221,-2.29071 1.35595,-4.40521 3.09296,-4.40521 1.68093,0 2.51019,1.93833 2.27486,6.5902 z m -16.338799,-0.0355 c -0.10077,1.98525 -0.470687,3.64164 -1.064625,4.85159 -1.075814,2.18495 -3.193797,2.87806 -4.135129,-0.28194 -0.672379,-2.26722 -0.448238,-5.36847 -0.168147,-7.0483 0.414652,-2.49041 1.456829,-4.24075 3.092951,-4.07629 1.669741,0.17626 2.487824,2.4199 2.274857,6.55494 z m 74.880669,2.3142 c -0.41465,0 -0.59394,0.44639 -0.75086,1.18647 -0.5379,2.58436 -1.09821,3.17171 -1.82663,3.17171 -0.80685,0 -1.53527,-1.28041 -1.72573,-3.84129 -0.1457,-2.02055 -0.12325,-5.72092 0.0673,-9.42124 0.0339,-0.76356 -0.15671,-1.50365 -2.10681,-2.24373 -0.84048,-0.31701 -2.05076,-0.78706 -2.65589,0.74008 -1.70337,4.32298 -2.37575,7.75313 -2.53263,9.13931 -0.0127,0.0706 -0.0898,0.0821 -0.11223,-0.0822 -0.10077,-1.116 -0.32487,-3.14827 -0.34732,-7.40073 0,-0.83403 -0.16815,-1.53886 -1.0534,-2.11449 -0.57153,-0.37607 -2.28609,-1.04551 -2.91366,-0.24686 -0.5379,0.64609 -1.16542,2.3847 -1.80422,4.45217 -0.52668,1.67987 -0.89647,2.8076 -0.89647,2.8076 0,0 0.0127,-4.52268 0.0127,-6.23775 0,-0.64609 -0.42583,-0.85757 -0.54912,-0.90454 -0.57154,-0.17627 -1.70338,-0.46987 -2.18525,-0.46987 -0.59394,0 -0.7396,0.35252 -0.7396,0.85751 0,0.0707 -0.0897,5.95583 -0.0897,10.0791 0,0.17627 0,0.37605 0,0.58735 -0.32486,1.8913 -1.38962,4.46394 -2.55504,4.46394 -1.15425,0 -1.70338,-1.08075 -1.70338,-5.97931 0,-2.86634 0.0783,-4.11155 0.12326,-6.17902 0.0212,-1.19823 0.0673,-2.11449 0.0673,-2.3142 -0.0127,-0.63437 -1.06459,-0.96328 -1.54645,-1.08075 -0.4931,-0.11766 -0.91893,-0.16427 -1.25515,-0.14119 -0.47063,0.0222 -0.80685,0.35253 -0.80685,0.79882 0,0.23488 0,0.69306 0,0.69306 -0.60511,-0.99847 -1.59131,-1.70331 -2.24124,-1.90302 -1.74818,-0.55214 -3.58603,-0.0586 -4.96442,1.96177 -1.09822,1.60937 -1.75937,3.4302 -2.01714,6.04981 -0.19059,1.91479 -0.12325,3.85306 0.21304,5.49768 -0.40321,1.85605 -1.16542,2.60785 -1.99472,2.60785 -1.21029,0 -2.08437,-2.06752 -1.98351,-5.62688 0.0673,-2.34945 0.51549,-3.99407 1.00859,-6.37872 0.21303,-1.01025 0.0339,-1.55063 -0.3812,-2.05575 -0.3922,-0.46987 -1.22151,-0.70484 -2.42057,-0.41114 -0.8517,0.21134 -2.07317,0.43466 -3.1826,0.61089 0,0 0.0673,-0.28194 0.12325,-0.77534 0.2914,-2.59612 -2.40934,-2.38466 -3.26105,-1.56234 -0.51551,0.49335 -0.86289,1.0807 -0.99737,2.1262 -0.21304,1.66811 1.08703,2.45517 1.08703,2.45517 -0.42584,2.04402 -1.46806,4.71061 -2.54386,6.63717 -0.57149,1.03373 -1.01978,1.7973 -1.59127,2.61961 0,-0.30546 0,-0.61083 0,-0.90453 -0.0127,-4.29949 0.0449,-7.6709 0.0673,-8.89263 0.0212,-1.19819 0.0673,-2.09096 0.0673,-2.29066 -0.0127,-0.46993 -0.26895,-0.6461 -0.80685,-0.86934 -0.48187,-0.19978 -1.04222,-0.32899 -1.62494,-0.37605 -0.7396,-0.0942 -1.18787,0.31701 -1.17665,0.79878 0,0.0942 0,0.65785 0,0.65785 -0.60516,-0.99852 -1.59131,-1.70335 -2.24129,-1.90301 -1.74818,-0.54038 -3.58603,-0.0586 -4.96437,1.96176 -1.09822,1.60936 -1.81546,3.86482 -2.01714,6.02628 -0.1906,2.02055 -0.15671,3.72386 0.10077,5.16878 -0.28039,1.4449 -1.07581,2.96028 -1.98351,2.96028 -1.15429,0 -1.815454,-1.08076 -1.815454,-5.97932 0,-2.86629 0.07833,-4.11149 0.123264,-6.17902 0.0212,-1.19818 0.0673,-2.11448 0.0673,-2.31419 -0.0127,-0.63432 -1.06433,-0.96327 -1.546195,-1.08071 -0.515504,-0.1292 -0.952564,-0.16428 -1.288729,-0.14074 -0.448279,0.0355 -0.762046,0.4581 -0.762046,0.76353 v 0.72836 c -0.605117,-0.99853 -1.591308,-1.70337 -2.241282,-1.90307 -1.748182,-0.54037 -3.57481,-0.0586 -4.96438,1.9618 -0.907701,1.31567 -1.636117,2.7723 -2.017139,6.0028 -0.112239,0.92802 -0.156712,1.80903 -0.145699,2.61962 -0.358744,2.3142 -1.961104,4.99255 -3.261052,4.99255 -0.762045,0 -1.490437,-1.55063 -1.490437,-4.86335 0,-4.41692 0.257727,-10.68993 0.30258,-11.30077 0,0 1.64732,-0.0222 1.972307,-0.0355 0.81808,-0.0134 1.568899,0.0134 2.667112,-0.047 0.549128,-0.0222 1.075808,-2.10277 0.515499,-2.34946 -0.25794,-0.11765 -2.073174,-0.22332 -2.801589,-0.23486 -0.60512,-0.0134 -2.297298,-0.14074 -2.297298,-0.14074 0,0 0.156882,-4.17024 0.190512,-4.60486 0.03388,-0.36407 -0.425825,-0.55215 -0.68357,-0.66963 -0.627551,-0.28193 -1.199076,-0.41113 -1.871455,-0.56386 -0.930125,-0.1998 -1.34476,0 -1.423204,0.81058 -0.123253,1.24517 -0.190512,4.8868 -0.190512,4.8868 -0.683586,0 -3.003294,-0.14074 -3.675673,-0.14074 -0.627556,0 -1.311142,2.8428 -0.437049,2.87805 1.008569,0.0355 2.756756,0.0705 3.911008,0.11766 0,0 -0.05604,6.39044 -0.05604,8.35225 0,0.21134 0,0.41114 0,0.61084 -0.638788,3.48894 -2.891257,5.36847 -2.891257,5.36847 0.481872,-2.30243 -0.504283,-4.04103 -2.286091,-5.50944 -0.649965,-0.54033 -1.949901,-1.56234 -3.395514,-2.69007 0,0 0.840472,-0.86929 1.58009,-2.6079 0.526696,-1.23344 0.54911,-2.6431 -0.739618,-2.96028 -2.129201,-0.51685 -3.899801,1.12772 -4.415291,2.87805 -0.403428,1.36269 -0.190511,2.37294 0.605141,3.41845 0.05604,0.0705 0.123252,0.15273 0.190512,0.23486 -0.481873,0.975 -1.143046,2.27895 -1.703363,3.30096 -1.55768,2.81933 -2.734342,5.05124 -3.619643,5.05124 -0.705996,0 -0.705996,-2.26717 -0.705996,-4.39342 0,-1.83256 0.123251,-4.58138 0.235322,-7.42419 0.03346,-0.93978 -0.414652,-1.48017 -1.165459,-1.96181 -0.459459,-0.29347 -1.434407,-0.88104 -1.994725,-0.88104 -0.851679,0 -3.283452,0.11766 -5.591958,7.11881 -0.291357,0.88105 -0.862885,2.49041 -0.862885,2.49041 l 0.04481,-8.41099 c 0,-0.19979 -0.100843,-0.38759 -0.324987,-0.51689 -0.392204,-0.22332 -1.423204,-0.66958 -2.353329,-0.66958 -0.437044,0 -0.661172,0.21134 -0.661172,0.6461 l -0.100843,13.15682 c 0,0.99852 0.02245,2.16151 0.123252,2.67834 0.08966,0.50514 0.246547,0.92803 0.437045,1.17475 0.190511,0.24686 0.403427,0.43466 0.762032,0.51685 0.336168,0.0707 2.162822,0.31701 2.263676,-0.41114 0.112071,-0.88105 0.123252,-1.83256 1.075807,-5.38019 1.490442,-5.52116 3.45155,-8.21128 4.35926,-9.16279 0.156881,-0.16428 0.347393,-0.17626 0.336168,0.0942 -0.04481,1.20996 -0.179287,4.22898 -0.268951,6.80158 -0.246546,6.87213 0.941332,8.15255 2.644694,8.15255 1.299936,0 3.13777,-1.36269 5.110084,-4.79285 1.232698,-2.13797 2.420568,-4.24075 3.283453,-5.75612 0.593935,0.57563 1.266315,1.19823 1.938694,1.86782 1.55768,1.55062 2.073174,3.01902 1.725778,4.41692 -0.257729,1.06898 -1.232698,2.16151 -2.969678,1.09251 -0.504287,-0.317 -0.72841,-0.55214 -1.232697,-0.90453 -0.268952,-0.18781 -0.694789,-0.24686 -0.941332,-0.047 -0.649964,0.51689 -1.019775,1.17474 -1.232692,1.97352 -0.201693,0.78705 0.549106,1.20996 1.322345,1.57412 0.672379,0.317 2.117993,0.59911 3.036915,0.63436 3.586021,0.1292 6.46605,-1.82079 8.471982,-6.82511 0.358617,4.32298 1.882662,6.77814 4.538556,6.77814 1.770592,0 3.552409,-2.39643 4.325635,-4.75764 0.224055,0.96327 0.549127,1.79735 0.97496,2.50218 2.039544,3.3949 6.006605,2.66659 7.990114,-0.22333 0.616346,-0.8928 0.70601,-1.21 0.70601,-1.21 0.291401,2.71361 2.375711,3.66512 3.574817,3.66512 1.34475,0 2.72315,-0.65781 3.68688,-2.94851 0.11225,0.24685 0.2355,0.48163 0.36976,0.70482 2.03955,3.39495 6.00656,2.65487 7.99011,-0.22332 0.0898,-0.1292 0.17917,-0.25841 0.24651,-0.36408 l 0.0559,1.78559 c 0,0 -1.13185,1.09248 -1.82663,1.76205 -3.07054,2.94852 -5.40145,5.19226 -5.56955,7.78839 -0.22406,3.32444 2.35331,4.55788 4.29201,4.72234 2.06198,0.17626 3.83258,-1.02197 4.91957,-2.70184 0.95255,-1.4684 1.58012,-4.64011 1.53527,-7.77662 -0.0212,-1.25693 -0.0449,-2.84281 -0.0673,-4.55789 1.07582,-1.31571 2.2861,-2.97205 3.40676,-4.91032 1.22146,-2.11449 2.52141,-4.9573 3.19378,-7.16578 0,0 1.13185,0.0134 2.34214,-0.0705 0.3922,-0.0222 0.50427,0.0586 0.42583,0.35253 -0.0898,0.36407 -1.52404,6.19074 -0.21305,10.07905 0.89653,2.65487 2.93607,3.51243 4.13513,3.51243 1.41202,0 2.75677,-1.11601 3.48519,-2.77235 0.0898,0.18781 0.17916,0.36407 0.28039,0.52862 2.03954,3.39495 5.98415,2.65486 7.99007,-0.22334 0.44828,-0.64608 0.70601,-1.20995 0.70601,-1.20995 0.42583,2.81932 2.52141,3.68861 3.70929,3.68861 1.24391,0 2.43179,-0.54034 3.38431,-2.91327 0.0449,1.0455 0.10077,1.90302 0.2016,2.17323 0.0559,0.16428 0.41465,0.37606 0.67238,0.46987 1.14307,0.44639 2.29732,0.23487 2.73437,0.14075 0.30241,-0.0586 0.52668,-0.31701 0.56031,-0.96328 0.0783,-1.70331 0.0339,-4.55788 0.52668,-6.67238 0.8293,-3.5594 1.59131,-4.94557 1.9611,-5.62692 0.20161,-0.3876 0.43706,-0.44638 0.44829,-0.047 0.0212,0.82231 0.0559,3.23049 0.36975,6.46095 0.23549,2.38465 0.54908,3.78259 0.78445,4.22898 0.68356,1.26869 1.53523,1.32744 2.23006,1.32744 0.43701,0 1.35594,-0.12921 1.2775,-0.9398 -0.0449,-0.39958 0.0339,-2.83103 0.84048,-6.34346 0.52668,-2.29071 1.41198,-4.35819 1.73696,-5.11003 0.12325,-0.28193 0.16815,-0.0586 0.16815,-0.0134 -0.0673,1.57415 -0.21305,6.73116 0.3922,9.55048 0.82927,3.8178 3.23866,4.25246 4.06792,4.25246 1.78181,0 3.24982,-1.42142 3.74291,-5.18049 0.1457,-0.86932 -0.0339,-1.57415 -0.56031,-1.57415 z m 0,0 z"
       id="path1-4"
       style="stroke-width:1.14735" /></g><style
     type="text/css"
     id="style1">
	.st0{fill:#FFFFFF;}
</style><style
     type="text/css"
     id="style1-2"><![CDATA[
	.st0{fill:#262626;}
]]></style></svg>
